<?xml version="1.0" standalone="no"?>
<!DOCTYPE svg PUBLIC "-//W3C//DTD SVG 20010904//EN"
 "http://www.w3.org/TR/2001/REC-SVG-20010904/DTD/svg10.dtd">
<svg version="1.0" xmlns="http://www.w3.org/2000/svg"
 width="672.000000pt" height="136.000000pt" viewBox="0 0 672.000000 136.000000"
 preserveAspectRatio="xMidYMid meet">

<g transform="translate(0.000000,136.000000) scale(0.100000,-0.100000)"
fill="#000000" stroke="none">
<path d="M5441 914 c-12 -15 -21 -32 -21 -39 0 -23 41 -65 64 -65 50 0 76 79
38 113 -27 24 -58 21 -81 -9z"/>
<path d="M455 923 c-53 -14 -95 -66 -95 -118 0 -50 33 -96 116 -166 70 -58 84
-75 84 -99 0 -58 -67 -67 -115 -16 l-32 35 -37 -25 c-20 -14 -36 -28 -36 -31
0 -22 51 -76 88 -94 81 -40 187 -7 218 67 32 77 5 137 -101 224 -88 72 -102
92 -79 114 23 23 57 20 84 -9 l23 -24 39 31 39 31 -32 33 c-44 45 -104 62
-164 47z"/>
<path d="M3190 665 l0 -265 45 0 c37 0 45 3 45 19 0 17 3 17 47 -5 54 -28 89
-30 140 -9 77 32 113 92 113 185 0 93 -36 153 -113 185 -51 21 -86 19 -140 -9
l-47 -23 0 93 0 94 -45 0 -45 0 0 -265z m262 6 c29 -26 33 -35 33 -81 0 -46
-4 -55 -33 -81 -46 -42 -93 -40 -138 5 -99 99 34 250 138 157z"/>
<path d="M6100 665 l0 -265 45 0 45 0 0 93 c0 50 5 110 10 132 16 69 78 97
120 55 18 -18 20 -33 20 -150 l0 -130 51 0 51 0 -4 154 c-4 177 -12 199 -87
226 -43 15 -56 13 -143 -25 -16 -6 -18 1 -18 84 l0 91 -45 0 -45 0 0 -265z"/>
<path d="M700 870 l0 -50 45 0 45 0 0 -210 0 -210 50 0 50 0 0 210 0 210 45 0
45 0 0 50 0 50 -140 0 -140 0 0 -50z"/>
<path d="M1060 660 l0 -260 50 0 49 0 3 113 3 112 78 -113 78 -112 55 0 c41 0
53 3 48 13 -4 6 -47 69 -96 139 -48 70 -88 130 -88 133 0 3 38 54 85 114 47
61 85 112 85 115 0 3 -25 6 -55 6 l-55 0 -67 -90 -68 -91 -3 91 -3 90 -49 0
-50 0 0 -260z"/>
<path d="M1490 660 l0 -260 50 0 50 0 0 260 0 260 -50 0 -50 0 0 -260z"/>
<path d="M1700 661 l0 -261 50 0 50 0 0 109 0 108 57 7 c31 4 71 16 89 26 81
51 76 202 -9 246 -21 12 -66 19 -134 22 l-103 5 0 -262z m192 142 c40 -36 10
-83 -53 -83 l-39 0 0 50 0 50 37 0 c20 0 45 -7 55 -17z"/>
<path d="M2310 660 l0 -262 108 3 c84 3 114 8 141 24 87 51 95 181 15 244
l-26 20 21 27 c14 18 21 41 21 73 0 89 -48 122 -187 129 l-93 5 0 -263z m174
144 c33 -32 5 -84 -46 -84 -27 0 -28 2 -28 50 0 49 1 50 29 50 16 0 37 -7 45
-16z m16 -189 c17 -9 30 -20 30 -24 0 -5 3 -16 6 -25 10 -27 -40 -66 -86 -66
l-40 0 0 65 0 65 30 0 c17 0 44 -7 60 -15z"/>
<path d="M2829 781 c-74 -24 -129 -106 -129 -190 1 -152 167 -255 275 -170
l25 20 0 -20 c0 -18 6 -21 50 -21 l50 0 0 190 0 190 -50 0 c-44 0 -50 -3 -50
-20 l0 -21 -27 21 c-32 23 -105 33 -144 21z m130 -97 c13 -9 30 -32 37 -51 29
-67 -20 -153 -87 -153 -68 0 -109 45 -109 119 0 79 94 130 159 85z"/>
<path d="M4241 770 c-52 -24 -51 -24 -51 -5 0 11 -12 15 -45 15 l-45 0 0 -190
0 -190 45 0 45 0 0 93 c0 50 5 110 10 132 16 69 78 97 120 55 18 -18 20 -33
20 -150 l0 -130 50 0 50 0 0 140 c0 154 -10 196 -54 225 -40 26 -95 28 -145 5z"/>
<path d="M4671 770 c-52 -24 -51 -24 -51 -5 0 11 -12 15 -45 15 l-45 0 0 -190
0 -190 45 0 45 0 0 93 c0 50 5 110 10 132 16 69 78 97 120 55 18 -18 20 -33
20 -150 l0 -130 50 0 50 0 0 140 c0 154 -10 196 -54 225 -40 26 -95 28 -145 5z"/>
<path d="M5069 781 c-74 -24 -129 -106 -129 -190 1 -152 167 -255 275 -170
l25 20 0 -20 c0 -18 6 -21 50 -21 l50 0 0 190 0 190 -50 0 c-44 0 -50 -3 -50
-20 l0 -21 -27 21 c-32 23 -105 33 -144 21z m130 -97 c13 -9 30 -32 37 -51 29
-67 -20 -153 -87 -153 -68 0 -109 45 -109 119 0 79 94 130 159 85z"/>
<path d="M5739 781 c-74 -24 -129 -106 -129 -190 1 -152 167 -255 275 -170
l25 20 0 -20 c0 -18 6 -21 50 -21 l50 0 0 190 0 190 -50 0 c-44 0 -50 -3 -50
-20 l0 -21 -27 21 c-32 23 -105 33 -144 21z m130 -97 c13 -9 30 -32 37 -51 29
-67 -20 -153 -87 -153 -68 0 -109 45 -109 119 0 79 94 130 159 85z"/>
<path d="M3672 636 c3 -127 5 -148 24 -172 52 -70 136 -92 217 -56 73 32 87
70 87 237 l0 135 -44 0 -44 0 -4 -129 c-3 -110 -6 -132 -22 -150 -11 -12 -30
-21 -43 -21 -65 0 -83 43 -83 198 l0 102 -46 0 -46 0 4 -144z"/>
<path d="M5440 586 c0 -223 -6 -250 -50 -244 -29 4 -30 4 -30 -38 l0 -43 44
-6 c53 -8 95 9 113 45 9 18 13 89 13 253 l0 227 -45 0 -45 0 0 -194z"/>
</g>
</svg>
